# xmcd
# Track frame offsets:
# 225
# 11542
# 25388
# 43397
# 53526
# 64675
# 81046
# 96320
# 111600
# 125251
# 138008
# 154600
#
# Disc length: 2256 seconds
# Revision: 0
# Processed by: cddbd v1.4PL0 Copyright (c) Steve Scherf et al.
# Submitted via: VisiTrax 2.9.5.180 - For more info visit www.synapsa.com
#
DISCID=9a08cd0c
DTITLE=Arnold Sanford - That's why I sing this way
DYEAR=1996
DGENRE=
TTITLE0=Same way you came in
TTITLE1=God save the queen
TTITLE2=Climbin' the walls
TTITLE3=Bury me close to a tavern
TTITLE4=That's why I sing this way
TTITLE5=Stone blind
TTITLE6=Dead from the heart, on down
TTITLE7=Not enogh Jack Daniels
TTITLE8=Million dollar memory
TTITLE9=ou an't treat a woman
TTITLE10=A long long time ago
TTITLE11=Me in jeans and m old broken heart
EXTD=
EXTT0=
EXTT1=
EXTT2=
EXTT3=
EXTT4=
EXTT5=
EXTT6=
EXTT7=
EXTT8=
EXTT9=
EXTT10=
EXTT11=
PLAYORDER=
